<?xml version="1.0" encoding="UTF-8"?>
<svg id="Layer_1" data-name="Layer 1" xmlns="http://www.w3.org/2000/svg" xmlns:xlink="http://www.w3.org/1999/xlink" viewBox="0 0 794.4 324.47">
  <defs>
    <style>
      .cls-1, .cls-2 {
        fill: #f15a29;
      }

      .cls-3 {
        fill: url(#radial-gradient-4);
      }

      .cls-3, .cls-2, .cls-4, .cls-5, .cls-6, .cls-7, .cls-8 {
        stroke-width: 0px;
      }

      .cls-3, .cls-6 {
        opacity: .5;
      }

      .cls-9 {
        letter-spacing: -.02em;
      }

      .cls-9, .cls-10 {
        fill: #231f20;
      }

      .cls-4 {
        fill: url(#radial-gradient-5);
      }

      .cls-5 {
        fill: url(#radial-gradient);
      }

      .cls-11 {
        font-family: Montserrat-Bold, Montserrat;
        font-size: 141.25px;
        font-weight: 700;
      }

      .cls-6 {
        fill: url(#radial-gradient-2);
      }

      .cls-7 {
        fill: url(#radial-gradient-6);
      }

      .cls-8 {
        fill: url(#radial-gradient-3);
      }
    </style>
    <radialGradient id="radial-gradient" cx="550.89" cy="107.31" fx="550.89" fy="107.31" r="13.49" gradientUnits="userSpaceOnUse">
      <stop offset="0" stop-color="#808285"/>
      <stop offset=".05" stop-color="#7a7b7e"/>
      <stop offset=".11" stop-color="#69696c"/>
      <stop offset=".19" stop-color="#4d4c4e"/>
      <stop offset=".28" stop-color="#272425"/>
      <stop offset=".29" stop-color="#231f20"/>
      <stop offset=".5" stop-color="#353334"/>
      <stop offset=".95" stop-color="#66676a"/>
      <stop offset="1" stop-color="#6d6e71"/>
    </radialGradient>
    <radialGradient id="radial-gradient-2" cx="551.02" cy="108.07" fx="551.02" fy="108.07" r="55.9" gradientUnits="userSpaceOnUse">
      <stop offset="0" stop-color="#4d4d4f"/>
      <stop offset=".26" stop-color="#353334"/>
      <stop offset=".51" stop-color="#231f20"/>
      <stop offset=".68" stop-color="#373436"/>
      <stop offset=".87" stop-color="#474648"/>
      <stop offset="1" stop-color="#4d4d4f"/>
    </radialGradient>
    <radialGradient id="radial-gradient-3" cx="551.02" cy="108.07" fx="551.02" fy="108.07" r="51.1" gradientUnits="userSpaceOnUse">
      <stop offset="0" stop-color="#808285"/>
      <stop offset=".08" stop-color="#7a7b7e"/>
      <stop offset=".2" stop-color="#69696c"/>
      <stop offset=".33" stop-color="#4d4c4e"/>
      <stop offset=".48" stop-color="#272425"/>
      <stop offset=".49" stop-color="#231f20"/>
      <stop offset=".65" stop-color="#353334"/>
      <stop offset=".96" stop-color="#66676a"/>
      <stop offset="1" stop-color="#6d6e71"/>
    </radialGradient>
    <radialGradient id="radial-gradient-4" cx="266.03" fx="266.03" r="55.9" xlink:href="#radial-gradient-2"/>
    <radialGradient id="radial-gradient-5" cx="266.03" fx="266.03" r="51.1" xlink:href="#radial-gradient-3"/>
    <radialGradient id="radial-gradient-6" cx="266.03" cy="107.12" fx="266.03" fy="107.12" r="13.48" xlink:href="#radial-gradient"/>
  </defs>
  <g>
    <g>
      <path class="cls-2" d="M551.02,120.38c-6.79,0-12.31-5.52-12.31-12.31s5.52-12.31,12.31-12.31,12.31,5.52,12.31,12.31-5.52,12.31-12.31,12.31ZM551.02,97.36c-5.91,0-10.71,4.81-10.71,10.71s4.8,10.71,10.71,10.71,10.71-4.81,10.71-10.71-4.81-10.71-10.71-10.71Z"/>
      <path class="cls-2" d="M550.92,110.82c-1.43,0-2.59-1.16-2.59-2.59s1.16-2.59,2.59-2.59,2.59,1.16,2.59,2.59-1.16,2.59-2.59,2.59ZM550.92,106.43c-.99,0-1.8.81-1.8,1.8s.81,1.8,1.8,1.8,1.8-.81,1.8-1.8-.81-1.8-1.8-1.8Z"/>
      <path class="cls-5" d="M545.46,116.89l.77-6.87-5.22-4.53,6.77-1.39,2.69-6.37,3.42,6.01,6.89.6-4.66,5.1,1.56,6.74-6.3-2.86-5.92,3.57ZM544.12,106.3l3.61,3.13-.53,4.75,4.09-2.47,4.35,1.97-1.08-4.65,3.22-3.53-4.76-.41-2.36-4.15-1.86,4.4-4.68.96Z"/>
    </g>
    <path class="cls-2" d="M226.63,107.47c0-21.63,17.54-39.17,39.19-39.17,13.98,0,26.24,7.32,33.18,18.33-6.65-13.67-20.67-23.1-36.9-23.1-22.64,0-41,18.35-41,40.99,0,19.5,13.62,35.8,31.86,39.95-15.32-5.32-26.32-19.87-26.32-37Z"/>
    <path class="cls-2" d="M181.08,51.23s-15.75,5.43-17.93,25.53c-2.17,20.1,0-40.74,0-40.74,0,0,1.63,4.35,17.93,15.21Z"/>
    <path class="cls-2" d="M170.36,84.66s-9.45,46.16,48.02,43.73c0,0-61.39,17.31-57.47-43.73h9.45Z"/>
    <path class="cls-2" d="M608.62,61.01s-24.99-14.13-128.75-11.95c0,0-32.59-30.97-93.98-38.57,0,0-58.77-4.82-136.9,21.19,0,0-23.97,8.74-61.39,16.84,0,0-18.47-11.95-20.64-19.56,0,0,19.42,7.06,64.1-3.8,0,0,103.83-37.93,180.91-20.64,0,0,45.63,9.24,74.42,31.51,0,0,82.03-1.63,122.23,24.99Z"/>
    <path class="cls-2" d="M625.46,84.56s-4.35-10.32-31.51-11.41c0,0-.79-3.16-8.69-10.87,0,0,27.16-5.98,40.2,22.27Z"/>
    <path class="cls-2" d="M371.76,51.78h93.44s-40.2-34.23-77.41-32.6c0,0,41.02,8.15,51.88,24.99l-67.91,7.61Z"/>
    <path class="cls-2" d="M359.81,51.78v-28.25s-53.24-2.17-87.46,12.49c0,0,26.08-20.1,91.81-19.56l-4.35,35.31Z"/>
    <path class="cls-2" d="M625.46,89.83s-30.36,28.97,8.21,40.83c0,0-24.99.09-32.05,0,0,0-1.15-38.11,23.84-40.83Z"/>
    <path class="cls-2" d="M519.29,74.4h0c-73.88-32.74-132.08,29.07-227.2-13.39,0,0,55.9,83.46,195.68,38.81,0,0-61.24,42.48-166.07,4.18,0,0,111.28,60.69,193.3,26.01h0c5.69,7.15,13.73,12.36,22.96,14.46-9.93-3.45-18.04-10.77-22.52-20.16-12.34-25.84,6.48-56.01,35.38-56.01,13.98,0,26.24,7.32,33.17,18.33-12.07-24.83-44.58-30.79-64.7-12.23Z"/>
    <path class="cls-6" d="M551.02,73.84c-18.88,0-34.23,15.36-34.23,34.23s15.36,34.23,34.23,34.23,34.23-15.36,34.23-34.23-15.35-34.23-34.23-34.23ZM551.02,131.5c-12.92,0-23.43-10.51-23.43-23.43s10.51-23.43,23.43-23.43,23.43,10.51,23.43,23.43-10.51,23.43-23.43,23.43ZM567.94,85.41c-4.25-3.42-8.89-5.44-12.53-6.16,12.9.82,23.94,11.17,25.52,24.67l-2.63.09c-.83-9.13-6.08-15.15-10.36-18.6Z"/>
    <path class="cls-8" d="M551.02,73.84c-18.88,0-34.23,15.36-34.23,34.23s15.36,34.23,34.23,34.23,34.23-15.36,34.23-34.23-15.35-34.23-34.23-34.23ZM551.02,131.5c-12.92,0-23.43-10.51-23.43-23.43s10.51-23.43,23.43-23.43,23.43,10.51,23.43,23.43-10.51,23.43-23.43,23.43ZM567.94,85.41c-4.25-3.42-8.89-5.44-12.53-6.16,12.9.82,23.94,11.17,25.52,24.67l-2.63.09c-.83-9.13-6.08-15.15-10.36-18.6Z"/>
    <path class="cls-3" d="M266.03,73.84c-18.88,0-34.23,15.36-34.23,34.23s15.36,34.23,34.23,34.23,34.23-15.36,34.23-34.23-15.35-34.23-34.23-34.23ZM266.03,131.5c-12.92,0-23.43-10.51-23.43-23.43s10.51-23.43,23.43-23.43,23.43,10.51,23.43,23.43-10.51,23.43-23.43,23.43ZM282.95,85.41c-4.25-3.42-8.89-5.44-12.53-6.16,12.9.82,23.94,11.17,25.53,24.67l-2.64.09c-.83-9.13-6.08-15.15-10.36-18.6Z"/>
    <path class="cls-4" d="M266.03,73.84c-18.88,0-34.23,15.36-34.23,34.23s15.36,34.23,34.23,34.23,34.23-15.36,34.23-34.23-15.35-34.23-34.23-34.23ZM266.03,131.5c-12.92,0-23.43-10.51-23.43-23.43s10.51-23.43,23.43-23.43,23.43,10.51,23.43,23.43-10.51,23.43-23.43,23.43ZM282.95,85.41c-4.25-3.42-8.89-5.44-12.53-6.16,12.9.82,23.94,11.17,25.53,24.67l-2.64.09c-.83-9.13-6.08-15.15-10.36-18.6Z"/>
    <g>
      <path class="cls-2" d="M266.16,120.19c-6.79,0-12.31-5.52-12.31-12.31s5.52-12.31,12.31-12.31,12.31,5.52,12.31,12.31-5.52,12.31-12.31,12.31ZM266.16,97.17c-5.91,0-10.71,4.81-10.71,10.71s4.81,10.71,10.71,10.71,10.71-4.81,10.71-10.71-4.81-10.71-10.71-10.71Z"/>
      <path class="cls-2" d="M266.06,110.63c-1.43,0-2.59-1.16-2.59-2.59s1.16-2.59,2.59-2.59,2.59,1.16,2.59,2.59-1.16,2.59-2.59,2.59ZM266.06,106.24c-.99,0-1.8.81-1.8,1.8s.81,1.8,1.8,1.8,1.8-.81,1.8-1.8-.81-1.8-1.8-1.8Z"/>
      <path class="cls-7" d="M260.6,116.7l.77-6.87-5.22-4.53,6.77-1.39,2.69-6.37,3.42,6.01,6.89.59-4.66,5.11,1.56,6.73-6.3-2.86-5.92,3.57ZM259.26,106.11l3.61,3.13-.53,4.75,4.09-2.46,4.35,1.97-1.08-4.65,3.22-3.53-4.76-.41-2.36-4.15-1.86,4.4-4.68.96Z"/>
    </g>
  </g>
  <text class="cls-11" transform="translate(0 287.88)"><tspan class="cls-1" x="0" y="0">RENT</tspan><tspan class="cls-10" x="400.02" y="0">N</tspan><tspan class="cls-9" x="514.16" y="0">O</tspan><tspan class="cls-10" x="630.12" y="0">W</tspan></text>
</svg>