<?xml version="1.0" encoding="UTF-8"?>
<svg xmlns="http://www.w3.org/2000/svg" version="1.1" viewBox="0 0 1080 1080">
  <defs>
    <style>
      .cls-1 {
        fill: #ff7c06;
      }
    </style>
  </defs>
  <!-- Generator: Adobe Illustrator 28.6.0, SVG Export Plug-In . SVG Version: 1.2.0 Build 709)  -->
  <g>
    <g id="Layer_1">
      <g>
        <g>
          <path d="M238.43,603.05v19.99c0,7.53-1.09,14.34-3.26,20.43-2.17,6.08-5,11.58-8.47,16.51-3.48,4.92-7.46,9.19-11.95,12.82-4.49,3.62-8.91,6.88-13.26,9.78-10.43,6.66-22.09,10.79-34.98,12.38-12.89,1.59-25.2,1.15-36.94-1.3-11.73-2.47-21.87-6.59-30.42-12.39-8.54-5.8-13.69-12.6-15.43-20.42-.58-2.9-.87-5.94-.87-9.12-.29-1.74-.44-3.48-.44-5.22l34.33-28.68c-.28,4.05-.58,8.11-.87,12.17-.28,3.48-.43,7.1-.43,10.86s.29,6.8.87,9.12c1.74,11.88,5.87,20.28,12.39,25.2,6.52,4.92,13.76,7.67,21.73,8.26,7.97.58,15.64-.51,23.03-3.26,7.39-2.76,12.67-6.16,15.86-10.21,4.92-6.37,7.82-11.73,8.69-16.08.87-4.35,1.3-8.55,1.3-12.6v-267.25l39.11,37.81v191.2Z"/>
          <path d="M478.73,656.94l-21.73,38.68h-74.74l-6.95-.44c5.22-8.69,9.78-16.51,13.69-23.47,3.91-6.95,8.26-14.7,13.04-23.25,4.78-8.54,9.34-17.16,13.69-25.85,10.43-21.44,17.23-40.77,20.42-58.01,3.18-17.23,3.48-30.92.87-41.06-1.74-7.82-6.08-13.47-13.04-16.95-8.11-4.05-18.62-5.21-31.5-3.48-12.89,1.74-28.18,8.55-45.85,20.43-7.54,4.93-14.42,10.14-20.64,15.64-6.23,5.51-11.66,10.72-16.3,15.64v138.62l-39.11-37.81v-281.59l39.11,37.81v104.73c2.32-2.61,4.56-5.14,6.74-7.6,2.17-2.46,4.56-4.85,7.17-7.17,4.63-4.35,10.28-8.76,16.95-13.25,6.66-4.49,13.91-8.48,21.73-11.95,7.82-3.47,16-6.37,24.55-8.69,8.54-2.31,16.73-3.48,24.55-3.48,10.43,0,20.57,2.47,30.42,7.39,8.4,4.35,15.64,10.29,21.73,17.82,6.08,7.54,10.28,16.08,12.6,25.64,2.61,10.43,3.04,21.07,1.3,31.94-1.74,10.86-4.78,21.66-9.12,32.37-4.35,10.72-9.56,21.44-15.64,32.16-6.08,10.72-12.32,21.01-18.69,30.85-1.74,2.61-3.41,5.07-5,7.39-1.59,2.32-3.11,4.64-4.56,6.95h54.32Z"/>
          <path d="M690.79,523.1c8.69,19.12,13.04,39.26,13.04,60.4,0,24.92-5.94,46.65-17.82,65.18-8.69,14.2-20.28,25.5-34.76,33.9-14.49,8.41-29.55,12.6-45.19,12.6-20.57,0-39.4-6.66-56.49-19.99-13.62-10.71-24.34-24.77-32.16-42.15-7.82-17.67-11.73-36.21-11.73-55.62,0-25.78,6.37-48.38,19.12-67.79.58-1.45,1.31-2.68,2.17-3.69.87-1.01,1.59-2.1,2.17-3.26h-32.16l21.73-38.24h84.74c8.4,0,16.8,1.16,25.2,3.48,8.4,2.32,16.8,6.08,25.2,11.3,15.35,10.14,27.66,24.77,36.94,43.89ZM629.08,659.11c5.22-3.48,10.28-7.17,15.21-11.08,4.92-3.91,9.49-9.41,13.69-16.51,4.2-7.1,7.89-16.44,11.08-28.03,3.18-11.59,5.5-26.79,6.95-45.63,1.45-16.8-1.38-30.2-8.48-40.2-7.1-9.99-16.3-14.99-27.59-14.99h-61.71c-4.93,3.77-10.14,9.13-15.64,16.08-5.51,6.95-9.71,13.91-12.6,20.86-9.56,22.89-14.78,42.15-15.64,57.79-.87,15.64.87,28.39,5.21,38.24,4.35,9.85,10.65,17.16,18.9,21.95,8.26,4.78,16.95,7.75,26.07,8.91,9.12,1.16,17.74.94,25.86-.65,8.11-1.59,14.34-3.84,18.68-6.74Z"/>
          <path d="M772.91,411.85v281.59l-39.11-37.81v-281.59l39.11,37.81Z"/>
          <path d="M791.18,658.95v2.3c.04.11.07.22.18.33l-.18-2.63Z"/>
          <path d="M845.05,464.43c7.53,0,16.51-.14,26.94-.43,10.43-.28,21.29-.22,32.59.22,11.3.43,22.45,1.45,33.46,3.04,11.01,1.59,20.93,4.28,29.77,8.04,8.83,3.77,16,8.91,21.51,15.43,5.5,6.52,8.26,14.85,8.26,24.99v177.73l-27.81-26.94c-4.64,7.82-12.6,14.12-23.9,18.9-11.3,4.78-23.76,7.75-37.37,8.91-13.62,1.16-27.53.5-41.72-1.95-14.2-2.46-26.58-7.17-37.15-14.12-10.58-6.95-18.33-16.15-23.25-27.59-4.93-11.44-4.93-25.42,0-41.93,2.89-9.85,7.53-17.82,13.9-23.9,6.37-6.08,13.69-11.3,21.95-15.64,8.26-4.35,17.09-8.11,26.51-11.3,9.41-3.18,18.75-6.66,28.03-10.43,17.96-7.53,30.78-13.83,38.46-18.9,7.67-5.06,11.66-9.27,11.95-12.6.28-3.33-2.39-5.87-8.04-7.6-5.65-1.74-12.82-2.97-21.51-3.69-8.69-.72-18.33-1.09-28.9-1.09h-53.67c-6.67,0-10.58-.28-11.73-.87l21.73-38.24ZM958.46,547.86c-4.93,4.35-10.86,8.11-17.81,11.3-6.95,3.19-14.27,6.23-21.95,9.12-7.68,2.9-15.5,5.8-23.47,8.69-7.97,2.9-15.28,6.3-21.95,10.21-6.67,3.91-12.38,8.48-17.16,13.69-4.78,5.21-8.04,11.45-9.78,18.69-3.19,13.62-2.61,24.12,1.74,31.5,4.35,7.39,10.64,12.32,18.9,14.78,8.26,2.46,17.67,2.9,28.25,1.3,10.57-1.59,20.49-4.78,29.77-9.56,9.27-4.78,17.09-10.71,23.47-17.82,6.37-7.1,9.7-14.7,9.99-22.81v-69.09Z"/>
        </g>
        <g>
          <path class="cls-1" d="M498.19,520.94c-.66,1.53-1.24,3.1-1.86,4.67-.11-1.57-.29-3.14-.51-4.71.37.04.77.04,1.17.04h1.2Z"/>
          <path class="cls-1" d="M539.99,222.66c-57.54,0-102.59,32.93-102.59,74.95,0,12.19,3.8,23.62,10.59,33.7,12.23-.15,24.46-.04,36.69.29-13.4-8.91-21.72-20.96-21.72-33.99,0-26.76,35.27-49.4,77.04-49.4s77.07,22.64,77.07,49.4-35.3,49.4-77.07,49.4c-15.99,0-31-3.32-43.45-8.91-14.24.51-28.51.73-42.75.66,18.07,20.52,49.62,33.81,86.2,33.81,57.54,0,102.63-32.9,102.63-74.95s-45.09-74.95-102.63-74.95Z"/>
        </g>
        <g>
          <path class="cls-1" d="M800.49,801.77l-9.13-140.2-.18-2.63v34.5c0,7.3-4.38,13.95-11.14,16.79-2.3.99-4.71,1.46-7.12,1.46-4.64,0-9.24-1.79-12.71-5.15l-39.1-37.79c-3.54-3.47-5.55-8.18-5.55-13.14v-27.6c-3.4,10.81-8.07,20.96-14.09,30.34-10.22,16.68-24.06,30.12-41.07,40.01-17.23,9.97-35.52,15.04-54.36,15.04-24.64,0-47.43-8-67.69-23.84-15.95-12.52-28.59-29.03-37.6-49.07-8.43-19.02-12.89-39.14-13.29-59.88-.69,1.94-1.46,3.87-2.23,5.81-4.64,11.43-10.26,22.96-16.68,34.32-3.47,6.06-6.97,12.05-10.55,17.93h20.74c6.5,0,12.49,3.43,15.77,9.02,3.25,5.62,3.32,12.52.15,18.18l-21.72,38.66c-3.25,5.77-9.31,9.31-15.92,9.31h-74.73c-.4,0-.77,0-1.17-.04l-6.94-.44c-6.35-.4-12.05-4.09-15.01-9.71-2.99-5.66-2.77-12.41.51-17.89,5.04-8.43,9.57-16.17,13.4-23.04,3.91-6.94,8.25-14.68,13.03-23.18,4.56-8.18,9.05-16.65,13.29-25.12,9.57-19.68,15.92-37.6,18.8-53.16,3.36-18.11,2.48-28.04,1.13-33.22-.04-.18-.07-.37-.15-.58-.58-2.74-1.61-3.69-3.36-4.56-3.1-1.53-7.27-2.34-12.41-2.34-2.59,0-5.44.22-8.51.62-6.9.91-19.09,4.71-38.08,17.49-6.97,4.53-13.22,9.27-18.77,14.17-3.65,3.25-7.05,6.39-10.11,9.42v131.18c0,7.3-4.38,13.95-11.14,16.79-2.3.99-4.71,1.46-7.12,1.46-4.64,0-9.2-1.79-12.71-5.15l-10.59-10.26-6.9,105.48c-1.97,30.08,21.91,55.57,52.06,55.57h416.87c30.16,0,54.03-25.48,52.06-55.57ZM378.53,823.38c-40.87,3.31-77.33-9.34-67.48-57.58,1.24-7.93,3.29-19.56,4.92-27.4,0,0,.28-1.36.28-1.36l.06-.33.03-.15s0-.02.02.03c0-.07,0-.14,0-.21.42.04-.9-.31,1.04-.08.07.3.03.21.07.45,3.75,37.71-11.62,69.71,39.47,76.25,21.73,2.96,43.66,1.89,65.81,3.42-14.52,3.58-29.21,5.98-44.22,6.96ZM549.52,819.13c59.68-5,119.76-5.04,179.44,0-59.68,5.04-119.76,5-179.44,0Z"/>
          <path class="cls-1" d="M317.36,736.72c.13,0,.08-.04.02-.06,0,.01-.01.04-.02.06Z"/>
        </g>
        <path class="cls-1" d="M770.81,346.39c-1.79-27.42-24.57-48.78-52.06-48.78h-357.46c-27.49,0-50.27,21.36-52.06,48.78l-2.45,37.28,15.63,15.08c3.54,3.43,5.55,8.14,5.55,13.11v63.2c.8-.55,1.57-1.1,2.37-1.64,7.52-5.07,15.77-9.6,24.53-13.51,8.65-3.8,17.78-7.05,27.2-9.6,10.08-2.74,19.93-4.13,29.32-4.13,13.25,0,26.21,3.14,38.59,9.31,10.84,5.62,20.12,13.22,27.75,22.67,2.48,3.1,4.75,6.32,6.72,9.68l18.4-32.42c3.25-5.7,9.31-9.24,15.88-9.24h84.74c9.97,0,20.08,1.39,30.05,4.13,10.08,2.81,20.15,7.3,29.97,13.4.15.07.29.18.44.29,18.07,11.9,32.64,29.13,43.3,51.15.07.15.15.26.22.4,3.25,7.19,5.99,14.53,8.14,22.02v-163.53c0-7.3,4.38-13.91,11.1-16.79,2.3-.99,4.75-1.46,7.12-1.46.55,0,1.1.11,1.64.15.04-8.98-2.12-18.25-11.94-19.06l-40.2-1.83,40.2-1.83c13.36-.37,17.6,12.6,18.36,24.53,1.68.84,3.25,1.83,4.64,3.18l26.98,26.07-2.67-40.6ZM368.33,335.04c26.47-2.23,53.05-3.5,79.66-3.72,12.23-.15,24.46-.04,36.69.29,21.07.51,42.1,1.64,63.09,3.43-17.05,1.42-34.14,2.45-51.22,3.07-14.24.51-28.51.73-42.75.66-28.55-.07-57.06-1.31-85.47-3.72Z"/>
      </g>
    </g>
  </g>
</svg>